<svg xmlns="http://www.w3.org/2000/svg" width="280.06" height="233.613" viewBox="0 0 280.06 233.613">
  <g id="bathtub-bath-svgrepo-com" transform="translate(1.5 -21.723)">
    <g id="Group_85" data-name="Group 85">
      <g id="Group_84" data-name="Group 84">
        <path id="Path_30" data-name="Path 30" d="M172.212,108.5a1.416,1.416,0,0,0,2.832,0V86.584a1.416,1.416,0,0,0-2.832,0Z" fill="#252b31" stroke="#252b31" stroke-width="3"/>
        <path id="Path_31" data-name="Path 31" d="M175.044,80.06V66.3a1.416,1.416,0,1,0-2.832,0V80.06a1.416,1.416,0,1,0,2.832,0Z" fill="#252b31" stroke="#252b31" stroke-width="3"/>
        <path id="Path_32" data-name="Path 32" d="M184,86.588V65.836a1.416,1.416,0,0,0-2.832,0V86.588a1.416,1.416,0,0,0,2.832,0Z" fill="#252b31" stroke="#252b31" stroke-width="3"/>
        <path id="Path_33" data-name="Path 33" d="M181.172,117.78a1.416,1.416,0,1,0,2.832,0V93.924a1.416,1.416,0,1,0-2.832,0Z" fill="#252b31" stroke="#252b31" stroke-width="3"/>
        <path id="Path_34" data-name="Path 34" d="M190.984,108.5a1.416,1.416,0,0,0,2.832,0V93.924a1.416,1.416,0,1,0-2.832,0Z" fill="#252b31" stroke="#252b31" stroke-width="3"/>
        <path id="Path_35" data-name="Path 35" d="M192.4,88a1.416,1.416,0,0,0,1.416-1.416V66.3a1.416,1.416,0,1,0-2.832,0V86.588A1.419,1.419,0,0,0,192.4,88Z" fill="#252b31" stroke="#252b31" stroke-width="3"/>
        <path id="Path_36" data-name="Path 36" d="M202.776,76.568V65.836a1.416,1.416,0,1,0-2.832,0V76.568a1.416,1.416,0,0,0,2.832,0Z" fill="#252b31" stroke="#252b31" stroke-width="3"/>
        <path id="Path_37" data-name="Path 37" d="M199.944,110.044a1.416,1.416,0,1,0,2.832,0V86.184a1.416,1.416,0,1,0-2.832,0Z" fill="#252b31" stroke="#252b31" stroke-width="3"/>
        <path id="Path_38" data-name="Path 38" d="M275.644,240.368H218.816c26.076-6.532,43.024-26.32,43.024-52.528V159.616a9.7,9.7,0,0,0-.7-19.372h-13V48.916a1.87,1.87,0,0,0-.052-.444A32.339,32.339,0,0,0,185.12,47.9H171.692a5.854,5.854,0,0,0,0,11.708h30.944a5.854,5.854,0,0,0,0-11.708H189.3a28.314,28.314,0,0,1,54.86,1.244v91.1H93.98v-3.656A1.984,1.984,0,0,0,92,134.6H41.308a1.984,1.984,0,0,0-1.984,1.984v3.656H9.72a9.7,9.7,0,0,0-.7,19.372V187.84c0,26.208,16.948,46,43.024,52.528H1.98a1.416,1.416,0,0,0-1.416,1.416V252.42a1.419,1.419,0,0,0,1.416,1.416H275.644a1.416,1.416,0,0,0,1.416-1.416V241.784A1.416,1.416,0,0,0,275.644,240.368Zm-73-188.5a1.886,1.886,0,0,1,0,3.772H171.7a1.886,1.886,0,0,1,0-3.772ZM93.976,144.216H261.144a5.752,5.752,0,1,1,0,11.5,1.95,1.95,0,0,0-.908.248,2,2,0,0,0-.38-.076H94.976a1.925,1.925,0,0,0-1,.308Zm-50.684-5.64h46.72v50.112c-.012,0-.024-.008-.036-.008H43.292Zm0,52.94H89.976c.012,0,.024-.008.036-.008v6.276H43.292ZM3.968,149.964a5.758,5.758,0,0,1,5.752-5.752h29.6v11.5H9.72A5.756,5.756,0,0,1,3.968,149.964Zm9.024,37.876V159.86H39.324v39.912a1.984,1.984,0,0,0,1.984,1.984H92a1.984,1.984,0,0,0,1.984-1.984v-40.22a1.939,1.939,0,0,0,1,.308H257.872v27.98c0,29.96-24.1,50.884-58.616,50.884H71.608C37.1,238.724,12.992,217.8,12.992,187.84ZM274.228,251H3.4v-7.8H274.228Z" fill="#252b31" stroke="#252b31" stroke-width="3"/>
      </g>
    </g>
  </g>
</svg>
