<svg xmlns="http://www.w3.org/2000/svg" width="545.064" height="527.85" viewBox="0 0 545.064 527.85">
  <g id="bathroom-furniture-svgrepo-com" transform="translate(0 -8.606)">
    <g id="Group_87" data-name="Group 87">
      <path id="Path_56" data-name="Path 56" d="M37.294,294.047H15.3a26.37,26.37,0,0,0-4.3.479l17.212,77.456h12.91c-9.084-11-15.3-22.472-15.3-39.206A63.823,63.823,0,0,1,37.294,294.047Z" fill="#252b31"/>
      <path id="Path_57" data-name="Path 57" d="M130.05,371.981h0l16.734-77.456a19.711,19.711,0,0,0-4.3-.479H120.487a68.573,68.573,0,0,1,11.475,38.729c0,16.734-6.215,28.688-14.822,39.206h12.91Z" fill="#252b31"/>
      <path id="Path_58" data-name="Path 58" d="M106.622,371.981c10.519-11.476,17.69-22.472,17.69-39.206,0-15.3-5.259-28.688-13.866-38.729a41.844,41.844,0,0,0-10.041-8.606c-6.694-3.825-13.387-6.216-21.038-6.216A40.123,40.123,0,0,0,58.33,285.44a80.432,80.432,0,0,0-10.041,8.606c-8.606,10.041-13.865,23.428-13.865,38.729,0,16.734,6.693,27.253,17.69,39.206Z" fill="#252b31"/>
      <path id="Path_59" data-name="Path 59" d="M479.082,384.412a81.5,81.5,0,0,1-21.994,2.869,95.941,95.941,0,0,1-20.082-2.391L420.272,515.418c0,1.912,1.912,3.347,4.3,3.347h67.416a3.771,3.771,0,0,0,3.826-3.825L479.082,384.412Z" fill="#252b31"/>
      <path id="Path_60" data-name="Path 60" d="M491.99,527.85Z" fill="#252b31"/>
      <path id="Path_61" data-name="Path 61" d="M540.281,311.26H505.856V294.047h4.781a3.771,3.771,0,0,0,3.826-3.825v-.478a3.771,3.771,0,0,0-3.826-3.825H491.99a3.77,3.77,0,0,0-3.824,3.825v.478a3.77,3.77,0,0,0,3.824,3.825h4.781V311.26H473.822l-4.781-23.429c-.957-4.781-1.912-10.519-7.172-10.519V263.446a4.3,4.3,0,0,0-8.608,0v13.866c-5.258,0-7.648,4.3-9.084,10.519L439.4,311.26H410.708V294.047h4.781a3.771,3.771,0,0,0,3.826-3.825v-.478a3.772,3.772,0,0,0-3.826-3.825H397.8a3.771,3.771,0,0,0-3.826,3.825v.478a3.771,3.771,0,0,0,3.826,3.825h4.3V311.26H376.285a4.3,4.3,0,1,0,0,8.606h11.954c1.434,24.863,19.6,46.379,44.943,54.984a78.98,78.98,0,0,0,24.385,3.825,85.2,85.2,0,0,0,25.34-4.3c24.863-8.606,42.553-29.644,43.51-54.507h14.344a4.285,4.285,0,0,0,4.3-4.3C545.064,313.171,542.672,311.26,540.281,311.26Z" fill="#252b31"/>
      <path id="Path_62" data-name="Path 62" d="M79.369,447.525a89.478,89.478,0,0,1-28.209-4.781L40.641,514.463c0,1.434,2.391,4.781,3.825,4.781H111.4c1.913,0,3.825-2.869,3.825-5.26L104.709,443.7A85.306,85.306,0,0,1,79.369,447.525Z" fill="#252b31"/>
      <path id="Path_63" data-name="Path 63" d="M153.478,389.193h6.216a4.3,4.3,0,0,0,0-8.606H3.825c-2.391,0-3.347,1.434-3.825,3.347v.956c0,.956.478,1.435.957,2.391a2.677,2.677,0,0,0,2.869,2.391H9.563c3.825,17.69,16.734,32.513,34.425,41.119,1.434.956,2.869,1.434,4.3,2.391,1.435.478,2.391.956,3.825,1.434A80.677,80.677,0,0,0,78.891,439.4a84.568,84.568,0,0,0,24.863-3.824c1.434-.479,2.391-.957,3.825-1.435,1.913-.479,2.869-1.435,4.3-1.913,18.647-8.605,32.513-23.906,36.337-42.553C148.219,389.193,153.478,389.193,153.478,389.193Z" fill="#252b31"/>
      <path id="Path_64" data-name="Path 64" d="M257.231,87.975,287.353,118.1c3.824-3.825,11.953-16.256,13.387-20.559l-22.949-22.95C274.443,75.544,261.056,84.15,257.231,87.975Z" fill="#252b31"/>
      <path id="Path_65" data-name="Path 65" d="M257.709,105.666a1.91,1.91,0,0,0,1.913-.956l2.869-2.869c.478-.479.478-.479.478-.957.478-.956.478-1.913-.478-2.391-.956-.956-1.913-.956-2.391-.478-.478,0-.478,0-.956.478l-2.869,2.869c-.956.957-.956,2.391,0,2.869C256.753,105.666,257.231,105.666,257.709,105.666Z" fill="#252b31"/>
      <path id="Path_66" data-name="Path 66" d="M248.147,115.228a1.91,1.91,0,0,0,1.913-.956l2.869-2.869c.956-.957.956-2.391,0-2.869-.956-.956-2.391-.956-2.869,0l-2.869,2.869c-.957.956-.957,2.391,0,2.869C247.191,115.228,247.669,115.228,248.147,115.228Z" fill="#252b31"/>
      <path id="Path_67" data-name="Path 67" d="M243.366,117.619c-.956-.956-2.391-.956-2.869,0l-3.347,3.347c-.956.956-.956,2.391,0,2.869a2.487,2.487,0,0,0,1.913.956c.957,0,1.435,0,1.913-.956l2.869-2.869C244.322,120.487,244.322,118.575,243.366,117.619Z" fill="#252b31"/>
      <path id="Path_68" data-name="Path 68" d="M262.491,111.4a2.484,2.484,0,0,0,1.913.956c.956,0,1.434,0,1.913-.956l2.869-2.869a1.48,1.48,0,0,1,.478-.956c.478-.956.478-1.913-.478-2.391-.957-.956-1.913-.956-2.391-.478-.478,0-.478,0-.957.478l-3.347,2.869C261.535,109.013,261.535,110.925,262.491,111.4Z" fill="#252b31"/>
      <path id="Path_69" data-name="Path 69" d="M256.275,114.75l-3.347,2.869c-.956.957-.956,2.391,0,2.869a2.481,2.481,0,0,0,1.913.957c.956,0,1.434,0,1.913-.957l2.869-2.869c.956-.956.956-2.391,0-2.869C258.666,113.794,256.753,113.794,256.275,114.75Z" fill="#252b31"/>
      <path id="Path_70" data-name="Path 70" d="M249.582,124.312c-.957-.956-2.391-.956-2.869,0l-3.347,2.869c-.956.957-.956,2.391,0,2.869a2.481,2.481,0,0,0,1.913.957c.956,0,1.434,0,1.913-.957l2.869-2.869C250.538,126.225,250.538,124.791,249.582,124.312Z" fill="#252b31"/>
      <path id="Path_71" data-name="Path 71" d="M273.009,111.4c-.478,0-.478,0-.956.478l-2.869,2.869c-.957.956-.957,2.391,0,2.869a2.485,2.485,0,0,0,1.913.957c.956,0,1.434,0,1.912-.957l2.87-2.869c.477-.478.477-.478.477-.956.479-.957.479-1.913-.477-2.391A3.051,3.051,0,0,0,273.009,111.4Z" fill="#252b31"/>
      <path id="Path_72" data-name="Path 72" d="M262.491,120.966l-2.869,3.347c-.957.956-.957,2.391,0,2.869a2.485,2.485,0,0,0,1.913.957c.956,0,1.434,0,1.912-.957l2.869-2.869c.956-.956.956-2.391,0-2.869A3.832,3.832,0,0,0,262.491,120.966Z" fill="#252b31"/>
      <path id="Path_73" data-name="Path 73" d="M252.928,130.528l-2.869,3.347c-.957.956-.957,2.391,0,2.869a2.485,2.485,0,0,0,1.913.957c.956,0,1.434,0,1.912-.957l2.869-2.869c.956-.956.956-2.391,0-2.869C255.319,129.572,253.884,129.572,252.928,130.528Z" fill="#252b31"/>
      <path id="Path_74" data-name="Path 74" d="M393.02,82.237V203.2a21.426,21.426,0,0,0,21.516,21.516h86.539A21.426,21.426,0,0,0,522.591,203.2V82.237a21.426,21.426,0,0,0-21.516-21.516H415.013C402.582,60.722,393.02,70.284,393.02,82.237ZM501.553,69.328a12.856,12.856,0,0,1,12.91,12.909V203.2a12.856,12.856,0,0,1-12.91,12.909H415.012A12.854,12.854,0,0,1,402.1,203.2V82.237a12.854,12.854,0,0,1,12.908-12.909h86.541Z" fill="#252b31"/>
      <path id="Path_75" data-name="Path 75" d="M176.906,467.128v69.328H358.592V8.606H176.906V467.128Zm8.607-449.916H349.989V467.128h-8.607V65.025a4.285,4.285,0,0,0-4.3-4.3H316.042a2.891,2.891,0,0,0-2.869,1.435L299.786,74.588c-4.3-2.869-10.041-1.434-13.389,0l15.779,15.778a49.21,49.21,0,0,0,1.912-6.694l14.344-13.388h15.3v397.8H185.513Z" fill="#252b31"/>
      <path id="Path_76" data-name="Path 76" d="M213.722,233.8h-4.3a15.406,15.406,0,0,0-15.3,15.3v38.728a15.406,15.406,0,0,0,15.3,15.3h4.3a15.406,15.406,0,0,0,15.3-15.3V248.625C229.022,240.5,221.85,233.8,213.722,233.8Zm6.694,54.028a6.838,6.838,0,0,1-6.693,6.694h-4.3a6.838,6.838,0,0,1-6.694-6.694V248.625a6.838,6.838,0,0,1,6.694-6.694h4.3a6.838,6.838,0,0,1,6.693,6.694Z" fill="#252b31"/>
      <rect id="Rectangle_38" data-name="Rectangle 38" width="147.262" height="25.819" transform="translate(3.825 181.688)" fill="#252b31"/>
      <rect id="Rectangle_39" data-name="Rectangle 39" width="147.262" height="25.819" transform="translate(3.825 69.328)" fill="#252b31"/>
      <path id="Path_77" data-name="Path 77" d="M65.025,60.722,73.153,8.606H38.728l4.781,52.116Z" fill="#252b31"/>
      <path id="Path_78" data-name="Path 78" d="M107.578,173.081V138.656H38.728v34.425ZM55.941,155.869H90.366v8.606H55.941Z" fill="#252b31"/>
      <rect id="Rectangle_40" data-name="Rectangle 40" width="86.541" height="8.606" transform="translate(29.644 120.966)" fill="#252b31"/>
    </g>
  </g>
</svg>
