<svg id="bathtub-svgrepo-com" xmlns="http://www.w3.org/2000/svg" width="166.601" height="166.601" viewBox="0 0 166.601 166.601">
  <path id="Path_39" data-name="Path 39" d="M15.777,46.1a2.776,2.776,0,0,0,2.777-2.777V12.777a2.777,2.777,0,0,0-5.553,0V43.32A2.776,2.776,0,0,0,15.777,46.1Z" transform="translate(23.097 17.767)" fill="#252b31"/>
  <path id="Path_40" data-name="Path 40" d="M19.777,54.874A2.776,2.776,0,0,0,22.553,52.1V18.777a2.777,2.777,0,0,0-5.553,0V52.1A2.776,2.776,0,0,0,19.777,54.874Z" transform="translate(30.204 28.427)" fill="#252b31"/>
  <path id="Path_41" data-name="Path 41" d="M23.777,53.65a2.776,2.776,0,0,0,2.777-2.777v-36.1a2.777,2.777,0,0,0-5.553,0v36.1A2.776,2.776,0,0,0,23.777,53.65Z" transform="translate(37.31 21.32)" fill="#252b31"/>
  <path id="Path_42" data-name="Path 42" d="M28.777,55.1a2.776,2.776,0,0,0,2.777-2.777V21.777a2.777,2.777,0,0,0-5.553,0V52.32A2.776,2.776,0,0,0,28.777,55.1Z" transform="translate(46.194 33.757)" fill="#252b31"/>
  <path id="Path_43" data-name="Path 43" d="M162.464.519a6.7,6.7,0,0,0-7.305,1.452l-7.192,7.192a15.985,15.985,0,0,0-20.986,1.352,2.774,2.774,0,0,0,0,3.926l19.634,19.634a2.775,2.775,0,0,0,3.926,0,15.982,15.982,0,0,0,1.349-20.986L159.082,5.9a1.151,1.151,0,0,1,1.966.814V89.365a8.236,8.236,0,0,0-2.777-.511H91.631V19.437a2.776,2.776,0,0,0-2.777-2.777H86.077V11.107h16.66a2.777,2.777,0,1,0,0-5.553H86.077V2.777a2.777,2.777,0,1,0-5.553,0V5.553H77.747V2.777a2.777,2.777,0,0,0-5.553,0V5.553H69.417V2.777a2.777,2.777,0,0,0-5.553,0V5.553H61.087V2.777a2.777,2.777,0,1,0-5.553,0V5.553H52.757V2.777a2.777,2.777,0,0,0-5.553,0V5.553H44.427V2.777a2.777,2.777,0,1,0-5.553,0V5.553H36.1V2.777a2.777,2.777,0,1,0-5.553,0V5.553H13.883a2.777,2.777,0,1,0,0,5.553h16.66V16.66H27.767a2.776,2.776,0,0,0-2.777,2.777V88.854H8.33a8.309,8.309,0,0,0-2.2,16.327l9.863,35.505a20.244,20.244,0,0,0,14.553,14.125v9.013A2.776,2.776,0,0,0,33.32,166.6h8.33a2.78,2.78,0,0,0,2.485-1.536l4.784-9.571h68.762l4.787,9.571a2.772,2.772,0,0,0,2.482,1.536h8.33a2.776,2.776,0,0,0,2.777-2.777v-9.013a20.24,20.24,0,0,0,14.553-14.125l9.863-35.505a8.317,8.317,0,0,0,6.128-8V6.711A6.685,6.685,0,0,0,162.464.519Zm-14.15,27.4-15.18-15.177a10.471,10.471,0,0,1,12.562,1.7l.919.919A10.484,10.484,0,0,1,148.314,27.922Zm9.957,66.485a2.777,2.777,0,1,1,0,5.553H91.631V94.407Zm-77.747-83.3V16.66H77.747V11.107Zm-8.33,0V16.66H69.417V11.107Zm-8.33,0V16.66H61.087V11.107Zm-8.33,0V16.66H52.757V11.107Zm-8.33,0V16.66H44.427V11.107Zm-11.107,0h2.777V16.66H36.1ZM30.544,22.213H86.077V119.4H30.544V22.213ZM8.33,94.407H24.99v5.553H8.33a2.777,2.777,0,1,1,0-5.553Zm31.6,66.64H36.1v-5.553h6.614Zm90.57,0h-3.837l-2.777-5.553H130.5ZM145.259,139.2a14.708,14.708,0,0,1-14.128,10.74H35.469A14.713,14.713,0,0,1,21.339,139.2l-9.357-33.687H24.99v19.437h66.64V105.514H154.62Z" fill="#252b31"/>
</svg>
