<svg xmlns="http://www.w3.org/2000/svg" width="175.861" height="172.412" viewBox="0 0 175.861 172.412">
  <g id="closed-bathroom-shower-svgrepo-com" transform="translate(0 -4.781)">
    <g id="Group_86" data-name="Group 86" transform="translate(0 4.781)">
      <path id="Path_44" data-name="Path 44" d="M326.849,105.97a1.724,1.724,0,0,0,1.724-1.724v-6.9a1.724,1.724,0,0,0-3.448,0v6.9A1.725,1.725,0,0,0,326.849,105.97Z" transform="translate(-207.885 -62.867)" fill="#252b31"/>
      <path id="Path_45" data-name="Path 45" d="M345.974,105.97a1.724,1.724,0,0,0,1.724-1.724v-6.9a1.724,1.724,0,1,0-3.448,0v6.9A1.725,1.725,0,0,0,345.974,105.97Z" transform="translate(-220.113 -62.867)" fill="#252b31"/>
      <path id="Path_46" data-name="Path 46" d="M365.1,105.97a1.724,1.724,0,0,0,1.724-1.724v-6.9a1.724,1.724,0,1,0-3.448,0v6.9A1.725,1.725,0,0,0,365.1,105.97Z" transform="translate(-232.342 -62.867)" fill="#252b31"/>
      <path id="Path_47" data-name="Path 47" d="M326.849,144.22a1.724,1.724,0,0,0,1.724-1.724v-6.9a1.724,1.724,0,1,0-3.448,0v6.9A1.725,1.725,0,0,0,326.849,144.22Z" transform="translate(-207.885 -87.324)" fill="#252b31"/>
      <path id="Path_48" data-name="Path 48" d="M345.974,144.22A1.724,1.724,0,0,0,347.7,142.5v-6.9a1.724,1.724,0,1,0-3.448,0v6.9A1.725,1.725,0,0,0,345.974,144.22Z" transform="translate(-220.113 -87.324)" fill="#252b31"/>
      <path id="Path_49" data-name="Path 49" d="M365.1,144.22a1.724,1.724,0,0,0,1.724-1.724v-6.9a1.724,1.724,0,1,0-3.448,0v6.9A1.725,1.725,0,0,0,365.1,144.22Z" transform="translate(-232.342 -87.324)" fill="#252b31"/>
      <path id="Path_50" data-name="Path 50" d="M326.849,182.47a1.724,1.724,0,0,0,1.724-1.724v-6.9a1.724,1.724,0,1,0-3.448,0v6.9A1.725,1.725,0,0,0,326.849,182.47Z" transform="translate(-207.885 -111.781)" fill="#252b31"/>
      <path id="Path_51" data-name="Path 51" d="M345.974,182.47a1.724,1.724,0,0,0,1.724-1.724v-6.9a1.724,1.724,0,1,0-3.448,0v6.9A1.725,1.725,0,0,0,345.974,182.47Z" transform="translate(-220.113 -111.781)" fill="#252b31"/>
      <path id="Path_52" data-name="Path 52" d="M365.1,182.47a1.724,1.724,0,0,0,1.724-1.724v-6.9a1.724,1.724,0,1,0-3.448,0v6.9A1.725,1.725,0,0,0,365.1,182.47Z" transform="translate(-232.342 -111.781)" fill="#252b31"/>
      <path id="Path_53" data-name="Path 53" d="M0,146.159v31.034H175.861V4.781H0Zm168.964-3.448h-6.9V16.85a1.725,1.725,0,0,0-1.724-1.724H125.861a1.724,1.724,0,0,0-1.724,1.724V25.47H112.93a2.587,2.587,0,0,0-2.586,2.586v1.724a2.587,2.587,0,0,0,2.586,2.586h25.862a2.587,2.587,0,0,0,2.586-2.586V28.057a2.587,2.587,0,0,0-2.586-2.586H127.585v-6.9h31.034V73.532c0-1.786-1.041-3.235-2.324-3.235h-.31c-1.283,0-.814,1.448-.814,3.235V80.86c0,1.783-.469,3.231.814,3.231h.31c1.283,0,2.324-1.448,2.324-3.235v61.855H93.1V11.677h75.861V142.711Zm-79.31,0H79.31V11.677H89.654ZM6.9,11.677H75.861V142.711H6.9Z" transform="translate(0 -4.781)" fill="#252b31"/>
      <path id="Path_54" data-name="Path 54" d="M167.949,148.219h-.431a4.963,4.963,0,0,0-4.955,4.959V174.3a4.963,4.963,0,0,0,4.959,4.955h.431a4.963,4.963,0,0,0,4.955-4.959v-21.12A4.963,4.963,0,0,0,167.949,148.219Zm1.511,26.075a1.51,1.51,0,0,1-1.51,1.51h-.431a1.509,1.509,0,0,1-1.507-1.51v-21.12a1.509,1.509,0,0,1,1.51-1.507h.431a1.509,1.509,0,0,1,1.507,1.51Z" transform="translate(-103.943 -96.495)" fill="#252b31"/>
      <path id="Path_55" data-name="Path 55" d="M272.709,179.253h.431a4.963,4.963,0,0,0,4.955-4.959v-21.12a4.963,4.963,0,0,0-4.959-4.955h-.431a4.963,4.963,0,0,0-4.955,4.959V174.3A4.963,4.963,0,0,0,272.709,179.253ZM271.2,153.178a1.51,1.51,0,0,1,1.51-1.51h.431a1.509,1.509,0,0,1,1.507,1.51V174.3a1.509,1.509,0,0,1-1.51,1.507h-.431a1.509,1.509,0,0,1-1.507-1.51Z" transform="translate(-171.199 -96.495)" fill="#252b31"/>
    </g>
  </g>
</svg>
