<svg xmlns="http://www.w3.org/2000/svg" width="179.039" height="248.68" viewBox="0 0 179.039 248.68">
  <g id="sink-bathroom-svgrepo-com" transform="translate(-70.5 1.5)">
    <g id="Group_89" data-name="Group 89" transform="translate(85.541 228.27)">
      <g id="Group_88" data-name="Group 88">
        <path id="Path_79" data-name="Path 79" d="M115.476,472H101.934A1.934,1.934,0,0,0,100,473.934v13.541a1.934,1.934,0,0,0,1.934,1.934h13.541a1.934,1.934,0,0,0,1.934-1.934V473.934A1.934,1.934,0,0,0,115.476,472Zm-1.934,13.541h-9.672v-9.672h9.672Z" transform="translate(-100 -472)" fill="#252b31" stroke="#252b31" stroke-width="3"/>
      </g>
    </g>
    <g id="Group_91" data-name="Group 91" transform="translate(215.152 228.27)">
      <g id="Group_90" data-name="Group 90">
        <path id="Path_80" data-name="Path 80" d="M385.41,472H369.935A1.934,1.934,0,0,0,368,473.934v13.541a1.934,1.934,0,0,0,1.935,1.934H385.41a1.934,1.934,0,0,0,1.935-1.934V473.934A1.934,1.934,0,0,0,385.41,472Zm-1.934,13.541H371.869v-9.672h11.607Z" transform="translate(-368 -472)" fill="#252b31" stroke="#252b31" stroke-width="3"/>
      </g>
    </g>
    <g id="Group_93" data-name="Group 93" transform="translate(72 102.528)">
      <g id="Group_92" data-name="Group 92">
        <path id="Path_81" data-name="Path 81" d="M225.347,212H95.1c-5.713,0-23.1,0-23.1,20.519V339.676a1.934,1.934,0,0,0,1.934,1.934H246.1a1.934,1.934,0,0,0,1.934-1.934V232.519C248.039,214.128,235.089,212,225.347,212ZM244.17,337.742H75.869V232.519c0-11.671,5.753-16.65,19.233-16.65H225.347c13.369,0,18.823,4.825,18.823,16.65Z" transform="translate(-72 -212)" fill="#252b31" stroke="#252b31" stroke-width="3"/>
      </g>
    </g>
    <g id="Group_95" data-name="Group 95" transform="translate(155.183 208.925)">
      <g id="Group_94" data-name="Group 94">
        <path id="Path_82" data-name="Path 82" d="M245.934,432A1.934,1.934,0,0,0,244,433.935v9.672a1.934,1.934,0,1,0,3.869,0v-9.672A1.934,1.934,0,0,0,245.934,432Z" transform="translate(-244 -432)" fill="#252b31" stroke="#252b31" stroke-width="3"/>
      </g>
    </g>
    <g id="Group_97" data-name="Group 97" transform="translate(155.183 102.528)">
      <g id="Group_96" data-name="Group 96">
        <path id="Path_83" data-name="Path 83" d="M245.934,212A1.934,1.934,0,0,0,244,213.934v94.79a1.934,1.934,0,1,0,3.869,0v-94.79A1.934,1.934,0,0,0,245.934,212Z" transform="translate(-244 -212)" fill="#252b31" stroke="#252b31" stroke-width="3"/>
      </g>
    </g>
    <g id="Group_99" data-name="Group 99" transform="translate(141.642 158.628)">
      <g id="Group_98" data-name="Group 98" transform="translate(0)">
        <path id="Path_84" data-name="Path 84" d="M217.934,328A1.934,1.934,0,0,0,216,329.935v13.541a1.934,1.934,0,0,0,3.869,0V329.935A1.934,1.934,0,0,0,217.934,328Z" transform="translate(-216 -328)" fill="#252b31" stroke="#252b31" stroke-width="3"/>
      </g>
    </g>
    <g id="Group_101" data-name="Group 101" transform="translate(168.724 158.628)">
      <g id="Group_100" data-name="Group 100">
        <path id="Path_85" data-name="Path 85" d="M273.935,328A1.934,1.934,0,0,0,272,329.935v13.541a1.934,1.934,0,0,0,3.869,0V329.935A1.934,1.934,0,0,0,273.935,328Z" transform="translate(-272 -328)" fill="#252b31" stroke="#252b31" stroke-width="3"/>
      </g>
    </g>
    <g id="Group_103" data-name="Group 103" transform="translate(149.507 63.838)">
      <g id="Group_102" data-name="Group 102" transform="translate(0)">
        <path id="Path_86" data-name="Path 86" d="M248.769,132.6a1.938,1.938,0,0,0-1.4-.6H234.2a1.934,1.934,0,0,0-1.933,2.025l1.815,38.69a1.935,1.935,0,0,0,1.933,1.844h9.539a1.935,1.935,0,0,0,1.933-1.844l1.816-38.69A1.938,1.938,0,0,0,248.769,132.6ZM243.7,170.69h-5.846l-1.635-34.821h9.115Z" transform="translate(-232.264 -132)" fill="#252b31" stroke="#252b31" stroke-width="3"/>
      </g>
    </g>
    <g id="Group_105" data-name="Group 105" transform="translate(139.707 92.856)">
      <g id="Group_104" data-name="Group 104">
        <path id="Path_87" data-name="Path 87" d="M227.462,203.127l-.453-9.287a1.936,1.936,0,0,0-1.933-1.84H213.934A1.934,1.934,0,0,0,212,193.934v9.672a1.934,1.934,0,0,0,1.934,1.934h11.615a.13.13,0,0,1,.039,0,1.933,1.933,0,0,0,1.934-1.934A1.964,1.964,0,0,0,227.462,203.127Zm-11.593-1.455v-5.8h7.368l.282,5.8Z" transform="translate(-212 -192)" fill="#252b31" stroke="#252b31" stroke-width="3"/>
      </g>
    </g>
    <g id="Group_107" data-name="Group 107" transform="translate(160.861 92.856)">
      <g id="Group_106" data-name="Group 106">
        <path id="Path_88" data-name="Path 88" d="M267.472,192h-9.32a1.933,1.933,0,0,0-1.933,1.84l-.478,9.672a1.938,1.938,0,0,0,1.933,2.029h9.8a1.934,1.934,0,0,0,1.934-1.934v-9.672A1.934,1.934,0,0,0,267.472,192Zm-1.935,9.672h-5.831l.286-5.8h5.544Z" transform="translate(-255.739 -192)" fill="#252b31" stroke="#252b31" stroke-width="3"/>
      </g>
    </g>
    <g id="Group_109" data-name="Group 109" transform="translate(151.314 75.445)">
      <g id="Group_108" data-name="Group 108" transform="translate(0)">
        <path id="Path_89" data-name="Path 89" d="M247.607,156h-9.672a1.934,1.934,0,0,0,0,3.869h9.672a1.934,1.934,0,1,0,0-3.869Z" transform="translate(-236 -156)" fill="#252b31" stroke="#252b31" stroke-width="3"/>
      </g>
    </g>
    <g id="Group_111" data-name="Group 111" transform="translate(91.345)">
      <g id="Group_110" data-name="Group 110" transform="translate(0)">
        <path id="Path_90" data-name="Path 90" d="M245.48,0H113.934A1.934,1.934,0,0,0,112,1.934V104.462a1.934,1.934,0,0,0,1.934,1.934H245.48a1.934,1.934,0,0,0,1.934-1.934V1.934A1.934,1.934,0,0,0,245.48,0Zm-1.934,102.528H115.869V3.869H243.545Z" transform="translate(-112)" fill="#252b31" stroke="#252b31" stroke-width="3"/>
      </g>
    </g>
    <g id="Group_113" data-name="Group 113" transform="translate(134.408 14.085)">
      <g id="Group_112" data-name="Group 112" transform="translate(0)">
        <path id="Path_91" data-name="Path 91" d="M217.748,29.69a1.932,1.932,0,0,0-2.735,0l-13.4,13.4a1.934,1.934,0,1,0,2.735,2.735l13.4-13.4A1.932,1.932,0,0,0,217.748,29.69Z" transform="translate(-201.043 -29.123)" fill="#252b31" stroke="#252b31" stroke-width="3"/>
      </g>
    </g>
    <g id="Group_115" data-name="Group 115" transform="translate(121.565 34.923)">
      <g id="Group_114" data-name="Group 114" transform="translate(0)">
        <path id="Path_92" data-name="Path 92" d="M183.2,72.778a1.932,1.932,0,0,0-2.735,0l-5.409,5.409a1.934,1.934,0,1,0,2.735,2.735l5.409-5.409A1.932,1.932,0,0,0,183.2,72.778Z" transform="translate(-174.487 -72.211)" fill="#252b31" stroke="#252b31" stroke-width="3"/>
      </g>
    </g>
    <g id="Group_117" data-name="Group 117" transform="translate(121.565 36.058)">
      <g id="Group_116" data-name="Group 116" transform="translate(0)">
        <path id="Path_93" data-name="Path 93" d="M203.023,75.126a1.932,1.932,0,0,0-2.735,0L175.054,100.36a1.934,1.934,0,1,0,2.735,2.735l25.233-25.233A1.932,1.932,0,0,0,203.023,75.126Z" transform="translate(-174.487 -74.559)" fill="#252b31" stroke="#252b31" stroke-width="3"/>
      </g>
    </g>
    <g id="Group_119" data-name="Group 119" transform="translate(174.69 21.455)">
      <g id="Group_118" data-name="Group 118">
        <path id="Path_94" data-name="Path 94" d="M292.033,44.93a1.932,1.932,0,0,0-2.735,0l-4.4,4.4a1.934,1.934,0,1,0,2.735,2.735l4.4-4.4A1.932,1.932,0,0,0,292.033,44.93Z" transform="translate(-284.335 -44.363)" fill="#252b31" stroke="#252b31" stroke-width="3"/>
      </g>
    </g>
    <g id="Group_121" data-name="Group 121" transform="translate(151.865 36.327)">
      <g id="Group_120" data-name="Group 120">
        <path id="Path_95" data-name="Path 95" d="M252.79,75.682a1.932,1.932,0,0,0-2.735,0L237.706,88.03a1.934,1.934,0,1,0,2.735,2.735L252.79,78.418A1.932,1.932,0,0,0,252.79,75.682Z" transform="translate(-237.139 -75.115)" fill="#252b31" stroke="#252b31" stroke-width="3"/>
      </g>
    </g>
  </g>
</svg>
