<svg xmlns="http://www.w3.org/2000/svg" width="498.317" height="498.317" viewBox="0 0 498.317 498.317">
  <g id="Group_130" data-name="Group 130" transform="translate(-3060 -1638.687)">
    <g id="Group_128" data-name="Group 128" transform="translate(-2908.325 2554.648)">
      <rect id="Rectangle_38" data-name="Rectangle 38" width="52.37" height="9.182" transform="translate(6361.825 -783.997)" fill="#252b31"/>
      <rect id="Rectangle_39" data-name="Rectangle 39" width="52.37" height="9.182" transform="translate(6361.825 -823.955)" fill="#252b31"/>
      <path id="Path_77" data-name="Path 77" d="M48.08,27.14,50.97,8.606H38.728l1.7,18.534Z" transform="translate(6335.509 -854.155)" fill="#252b31"/>
      <path id="Path_78" data-name="Path 78" d="M63.213,150.9V138.656H38.728V150.9Zm-18.363-6.121H57.092v3.06H44.849Z" transform="translate(6335.509 -937.957)" fill="#252b31"/>
      <rect id="Rectangle_40" data-name="Rectangle 40" width="30.776" height="3.06" transform="translate(6371.007 -805.592)" fill="#252b31"/>
    </g>
    <g id="_6" data-name="6" transform="translate(3060 1638.687)">
      <path id="Path_97" data-name="Path 97" d="M495,453.972h-8.3V429.058a7.848,7.848,0,0,0-8.3-8.3h-8.3V13.817a7.848,7.848,0,0,0-8.3-8.3H46.536a7.848,7.848,0,0,0-8.3,8.3V420.753h-8.3a7.848,7.848,0,0,0-8.3,8.3v24.914h-8.3a7.848,7.848,0,0,0-8.3,8.3V495.5a7.848,7.848,0,0,0,8.3,8.3H495a7.848,7.848,0,0,0,8.3-8.3V462.277a7.848,7.848,0,0,0-8.3-8.3Zm-41.524-33.219H395.338V271.266h24.914a7.848,7.848,0,0,0,8.3-8.3V221.437a7.848,7.848,0,0,0-8.3-8.3H395.338V22.122h58.134Zm-340.5-166.1H96.365V229.742h16.61Zm16.61-232.535H245.852V47.867c-28.236,4.983-49.829,32.389-49.829,65.608a7.848,7.848,0,0,0,8.3,8.3h99.658a7.848,7.848,0,0,0,8.3-8.3c0-33.219-21.592-61.456-49.829-65.608V22.122H378.729V420.753H129.585ZM254.157,63.646c20.762,0,37.372,18.271,40.694,41.524H212.633C216.785,81.917,233.395,63.646,254.157,63.646Zm141.182,166.1h16.61v24.914h-16.61ZM54.841,22.122h58.134V213.133H88.061a7.848,7.848,0,0,0-8.3,8.3v41.524a7.848,7.848,0,0,0,8.3,8.3h24.914V420.753H54.841Zm-16.61,415.24h431.85v16.61H38.232Zm448.46,49.829H21.622v-16.61H486.691Z" transform="translate(-4.998 -5.498)" fill="#252b31"/>
      <path id="Path_98" data-name="Path 98" d="M40.317,21.512a7.848,7.848,0,0,0-8.3,8.3v8.3a8.3,8.3,0,0,0,16.61,0v-8.3a7.848,7.848,0,0,0-8.3-8.3Z" transform="translate(192.231 111.379)" fill="#252b31"/>
      <path id="Path_99" data-name="Path 99" d="M40.317,26.512a7.848,7.848,0,0,0-8.3,8.3v8.3a8.3,8.3,0,0,0,16.61,0v-8.3a7.848,7.848,0,0,0-8.3-8.3Z" transform="translate(192.231 147.903)" fill="#252b31"/>
      <path id="Path_100" data-name="Path 100" d="M40.317,31.512a7.848,7.848,0,0,0-8.3,8.3v8.3a8.3,8.3,0,0,0,16.61,0v-8.3a7.848,7.848,0,0,0-8.3-8.3Z" transform="translate(192.231 184.427)" fill="#252b31"/>
      <path id="Path_101" data-name="Path 101" d="M40.317,36.512a7.848,7.848,0,0,0-8.3,8.3v8.3a8.3,8.3,0,0,0,16.61,0v-8.3a7.848,7.848,0,0,0-8.3-8.3Z" transform="translate(192.231 220.951)" fill="#252b31"/>
      <path id="Path_102" data-name="Path 102" d="M36.317,21.512a7.848,7.848,0,0,0-8.3,8.3v8.3a8.3,8.3,0,1,0,16.61,0v-8.3a7.848,7.848,0,0,0-8.3-8.3Z" transform="translate(163.012 111.379)" fill="#252b31"/>
      <path id="Path_103" data-name="Path 103" d="M36.317,26.512a7.848,7.848,0,0,0-8.3,8.3v8.3a8.3,8.3,0,1,0,16.61,0v-8.3a7.848,7.848,0,0,0-8.3-8.3Z" transform="translate(163.012 147.903)" fill="#252b31"/>
      <path id="Path_104" data-name="Path 104" d="M36.317,31.512a7.848,7.848,0,0,0-8.3,8.3v8.3a8.3,8.3,0,1,0,16.61,0v-8.3a7.848,7.848,0,0,0-8.3-8.3Z" transform="translate(163.012 184.427)" fill="#252b31"/>
      <path id="Path_105" data-name="Path 105" d="M36.317,36.512a7.848,7.848,0,0,0-8.3,8.3v8.3a8.3,8.3,0,1,0,16.61,0v-8.3a7.848,7.848,0,0,0-8.3-8.3Z" transform="translate(163.012 220.951)" fill="#252b31"/>
      <path id="Path_106" data-name="Path 106" d="M44.317,21.512a7.848,7.848,0,0,0-8.3,8.3v8.3a8.3,8.3,0,1,0,16.61,0v-8.3a7.848,7.848,0,0,0-8.3-8.3Z" transform="translate(221.451 111.379)" fill="#252b31"/>
      <path id="Path_107" data-name="Path 107" d="M44.317,26.512a7.848,7.848,0,0,0-8.3,8.3v8.3a8.3,8.3,0,1,0,16.61,0v-8.3a7.848,7.848,0,0,0-8.3-8.3Z" transform="translate(221.451 147.903)" fill="#252b31"/>
      <path id="Path_108" data-name="Path 108" d="M44.317,31.512a7.848,7.848,0,0,0-8.3,8.3v8.3a8.3,8.3,0,1,0,16.61,0v-8.3a7.848,7.848,0,0,0-8.3-8.3Z" transform="translate(221.451 184.427)" fill="#252b31"/>
      <path id="Path_109" data-name="Path 109" d="M44.317,36.512a7.848,7.848,0,0,0-8.3,8.3v8.3a8.3,8.3,0,1,0,16.61,0v-8.3a7.848,7.848,0,0,0-8.3-8.3Z" transform="translate(221.451 220.951)" fill="#252b31"/>
      <path id="Path_110" data-name="Path 110" d="M48.317,21.512a7.848,7.848,0,0,0-8.3,8.3v8.3a8.3,8.3,0,0,0,16.61,0v-8.3a7.848,7.848,0,0,0-8.3-8.3Z" transform="translate(250.67 111.379)" fill="#252b31"/>
      <path id="Path_111" data-name="Path 111" d="M48.317,26.512a7.848,7.848,0,0,0-8.3,8.3v8.3a8.3,8.3,0,0,0,16.61,0v-8.3a7.848,7.848,0,0,0-8.3-8.3Z" transform="translate(250.67 147.903)" fill="#252b31"/>
      <path id="Path_112" data-name="Path 112" d="M48.317,31.512a7.848,7.848,0,0,0-8.3,8.3v8.3a8.3,8.3,0,0,0,16.61,0v-8.3a7.848,7.848,0,0,0-8.3-8.3Z" transform="translate(250.67 184.427)" fill="#252b31"/>
      <path id="Path_113" data-name="Path 113" d="M48.317,36.512a7.848,7.848,0,0,0-8.3,8.3v8.3a8.3,8.3,0,0,0,16.61,0v-8.3a7.848,7.848,0,0,0-8.3-8.3Z" transform="translate(250.67 220.951)" fill="#252b31"/>
    </g>
    <g id="Path_114" data-name="Path 114" transform="translate(3259.315 1694.596)" fill="#252b31">
      <path d="M 24.91441535949707 59.85803604125977 C 21.61826515197754 59.85803604125977 18.42098999023438 59.21259689331055 15.41137790679932 57.93963623046875 C 12.50419044494629 56.70999908447266 9.893152236938477 54.94954681396484 7.650815010070801 52.70721054077148 C 5.408477783203125 50.46487426757812 3.648040056228638 47.85384750366211 2.418402671813965 44.94664764404297 C 1.145440101623535 41.93703460693359 0.5000026226043701 38.73976135253906 0.5000026226043701 35.44361114501953 C 0.5000026226043701 33.85451126098633 0.9586526155471802 32.06307220458984 1.863202571868896 30.11906051635742 C 2.726252555847168 28.26426124572754 3.995890140533447 26.26768684387207 5.636852741241455 24.18481063842773 C 8.718515396118164 20.27324867248535 13.03431510925293 16.14201164245605 18.1176643371582 12.23769855499268 C 22.95760345458984 8.52034854888916 28.30644035339355 5.181936264038086 33.17887878417969 2.837460994720459 C 38.31662750244141 0.3653110861778259 42.73146438598633 -0.9414014220237732 45.94609069824219 -0.9414014220237732 C 49.22841644287109 -0.9414014220237732 54.02345275878906 -0.02227641828358173 58.7728157043457 1.517261028289795 C 63.06282806396484 2.907898664474487 69.51866149902344 5.517611026763916 75.91175079345703 10.05298614501953 C 78.53218078613281 11.89634895324707 81.11679077148438 14.1798734664917 83.59542846679688 16.84127426147461 C 85.93706512451172 19.3555736541748 88.07061767578125 22.08112335205078 89.93679046630859 24.94218635559082 C 91.73806762695312 27.7037353515625 93.22303009033203 30.51523590087891 94.23114013671875 33.07273483276367 C 95.25487518310547 35.66983795166016 95.79600524902344 38.03072357177734 95.79600524902344 39.90015029907227 C 95.79600524902344 42.86881256103516 92.79287719726562 45.74429702758789 86.87005615234375 48.44674682617188 C 81.77096557617188 50.77333450317383 74.63560485839844 52.91079711914062 65.66215515136719 54.79976272583008 C 56.49706649780273 56.72906112670898 47.63560104370117 57.93108749389648 41.81565093994141 58.59973526000977 C 34.9576416015625 59.38764953613281 28.63942718505859 59.85803604125977 24.91441535949707 59.85803604125977 Z" stroke="none"/>
      <path d="M 45.94609451293945 -0.4414100646972656 C 42.80606842041016 -0.4414100646972656 38.46620178222656 0.84820556640625 33.39566802978516 3.288005828857422 C 28.55335235595703 5.618003845214844 23.23567199707031 8.937217712402344 18.42222595214844 12.63423156738281 C 13.37128448486328 16.51364517211914 9.085990905761719 20.61476516723633 6.02960205078125 24.49423217773438 C 2.739219665527344 28.67073822021484 1 32.45696258544922 1 35.443603515625 C 1 38.67247009277344 1.632164001464844 41.80421829223633 2.87890625 44.75186920166016 C 4.083335876464844 47.59945678710938 5.807792663574219 50.15707015991211 8.004379272460938 52.35365676879883 C 10.20095062255859 54.55024337768555 12.75856018066406 56.27469635009766 15.60614776611328 57.4791259765625 C 18.55380249023438 58.72587203979492 21.685546875 59.3580322265625 24.91441345214844 59.3580322265625 C 28.62149810791016 59.3580322265625 34.91838836669922 58.88885879516602 41.75859069824219 58.10300445556641 C 47.56798934936523 57.43556594848633 56.41291046142578 56.23581695556641 65.55915832519531 54.31047058105469 C 74.49665832519531 52.42908477783203 81.59683990478516 50.30319213867188 86.66249847412109 47.99184417724609 C 89.48792266845703 46.70267105102539 91.65711212158203 45.35952377319336 93.10981750488281 43.99971008300781 C 94.56045532226562 42.64181518554688 95.29600524902344 41.26251220703125 95.29600524902344 39.90013885498047 C 95.29600524902344 38.09285736083984 94.76692199707031 35.79537963867188 93.76597595214844 33.25608444213867 C 92.77004241943359 30.72951126098633 91.30110931396484 27.94907188415527 89.51800537109375 25.21535110473633 C 87.66742706298828 22.37821960449219 85.55168151855469 19.67541885375977 83.22952270507812 17.18202972412109 C 80.77448272705078 14.54596328735352 78.21617126464844 12.28537750244141 75.62242889404297 10.46077728271484 C 69.28090667724609 5.961990356445312 62.87545776367188 3.372776031494141 58.61862945556641 1.992897033691406 C 53.91633605957031 0.4686050415039062 49.17893600463867 -0.4414100646972656 45.94609451293945 -0.4414100646972656 M 45.94609451293945 -1.441410064697266 C 51.7252311706543 -1.441410064697266 64.69769287109375 1.484485626220703 76.20104217529297 9.645175933837891 C 87.15317535400391 17.34952545166016 96.29600524902344 31.91943168640137 96.29600524902344 39.90013885498047 C 96.29600524902344 53.65999221801758 38.67427062988281 60.3580322265625 24.91441345214844 60.3580322265625 C 11.15456390380859 60.3580322265625 0 49.20345687866211 0 35.443603515625 C 0 21.68375015258789 32.18624114990234 -1.441410064697266 45.94609451293945 -1.441410064697266 Z" stroke="none" fill="#252b31"/>
    </g>
    <g id="Rectangle_45" data-name="Rectangle 45" transform="translate(3151 1855)" fill="#252b31" stroke="#252b31" stroke-width="1">
      <rect width="25" height="41" stroke="none"/>
      <rect x="0.5" y="0.5" width="24" height="40" fill="none"/>
    </g>
    <g id="Rectangle_46" data-name="Rectangle 46" transform="translate(3143 1855)" fill="#252b31" stroke="#252b31" stroke-width="1">
      <rect width="33" height="41" stroke="none"/>
      <rect x="0.5" y="0.5" width="32" height="40" fill="none"/>
    </g>
    <g id="Rectangle_47" data-name="Rectangle 47" transform="translate(3442 1855)" fill="#252b31" stroke="#252b31" stroke-width="1">
      <rect width="33" height="41" stroke="none"/>
      <rect x="0.5" y="0.5" width="32" height="40" fill="none"/>
    </g>
    <g id="Rectangle_48" data-name="Rectangle 48" transform="translate(3085 2062)" fill="#252b31" stroke="#252b31" stroke-width="1">
      <rect width="448" height="33" stroke="none"/>
      <rect x="0.5" y="0.5" width="447" height="32" fill="none"/>
    </g>
  </g>
</svg>
