<svg id="Group_122" data-name="Group 122" xmlns="http://www.w3.org/2000/svg" width="51" height="51" viewBox="0 0 51 51">
  <rect id="Rectangle_20" data-name="Rectangle 20" width="51" height="51" rx="25.5" fill="#ff6900"/>
  <g id="Group_21" data-name="Group 21" transform="translate(7.177 11.806)">
    <g id="bath-svgrepo-com" transform="translate(0 0)">
      <rect id="Rectangle_12" data-name="Rectangle 12" width="28.217" height="1.129" transform="translate(3.386 12.98)" fill="#fff"/>
      <path id="Path_9" data-name="Path 9" d="M113.132,145.924a.847.847,0,1,1,1.693,0v.282h1.129v-.282a1.975,1.975,0,0,0-3.95,0v4.233h1.129Z" transform="translate(-104.102 -137.741)" fill="#fff"/>
      <rect id="Rectangle_13" data-name="Rectangle 13" width="1.364" height="0.682" transform="translate(9.549 10.913)" fill="#fff"/>
      <rect id="Rectangle_14" data-name="Rectangle 14" width="1.364" height="0.682" transform="translate(6.138 10.913)" fill="#fff"/>
      <path id="Path_10" data-name="Path 10" d="M36.118,276.347l-11.851.007v-1.835a7.737,7.737,0,0,0,6.208-7.574v-3H29.346v3a6.6,6.6,0,0,1-6.6,6.6H12.239a6.6,6.6,0,0,1-6.6-6.6v-3H4.515v3a7.737,7.737,0,0,0,6.208,7.574v1.844L0,276.369V277.5l36.118-.022Zm-12.979.008-11.287.007v-1.7q.193.01.388.01H22.751q.2,0,.388-.01Z" transform="translate(0 -249.273)" fill="#fff"/>
      <path id="Path_11" data-name="Path 11" d="M457.688,57.08h1.129V55.951h-2.257v1.693h-.564v1.129h1.693Z" transform="translate(-423.827 -55.951)" fill="#fff"/>
      <path id="Path_12" data-name="Path 12" d="M265.128,58.773h1.693V57.644h-.564V55.951H264V57.08h1.129Z" transform="translate(-245.375 -55.951)" fill="#fff"/>
      <path id="Path_13" data-name="Path 13" d="M313.128,65.08h7.336v6.772h1.129v-7.9H312v7.9h1.129Z" transform="translate(-289.989 -63.387)" fill="#fff"/>
      <rect id="Rectangle_15" data-name="Rectangle 15" width="0.682" height="0.682" transform="translate(23.872 7.503)" fill="#fff"/>
      <rect id="Rectangle_16" data-name="Rectangle 16" width="1.364" height="0.682" transform="translate(25.236 7.503)" fill="#fff"/>
      <rect id="Rectangle_17" data-name="Rectangle 17" width="0.682" height="0.682" transform="translate(27.282 7.503)" fill="#fff"/>
      <rect id="Rectangle_18" data-name="Rectangle 18" width="1.364" height="0.682" transform="translate(28.646 7.503)" fill="#fff"/>
      <rect id="Rectangle_19" data-name="Rectangle 19" width="21.144" height="1.364" transform="translate(6.821 14.323)" fill="#fff"/>
    </g>
  </g>
</svg>
