<svg xmlns="http://www.w3.org/2000/svg" xmlns:xlink="http://www.w3.org/1999/xlink" width="219" height="15" viewBox="0 0 219 15">
  <defs>
    <clipPath id="clip-path">
      <rect id="Rectangle_28" data-name="Rectangle 28" width="219" height="15" fill="#ff6900"/>
    </clipPath>
  </defs>
  <g id="Element_15" data-name="Element 15" clip-path="url(#clip-path)">
    <path id="Path_29" data-name="Path 29" d="M219.053,2.073c-1.115-.094-2.138-.094-3.253-.094s-2.138-.094-3.253-.188c-2.416-.188-4.739-.471-7.156-.66-4.554-.377-9.2-.754-13.755-.848C187.454.094,183.179,0,179,0h-3.253c-4.182.094-8.364.094-12.547.188-9.759.283-19.61.565-29.368,1.037-9.573.471-19.145.942-28.625,1.508-4.647.283-9.387.565-14.033.848-5.112.471-10.223.754-15.242,1.131-10.5.848-20.911,1.6-31.413,2.45-9.108.754-18.123,1.791-27.138,3.11C11.617,11.215,5.762,12.251,0,13.288c6.6.471,13.29.66,19.981.754,4.368,0,8.736-.094,13.011-.188,2.788-.094,5.576-.283,8.457-.471,1.766-.094,3.439-.283,5.112-.471,4.554-.471,9.2-.848,13.755-1.319,5.3-.471,10.5-1.037,15.8-1.508,5.39-.471,10.874-.942,16.264-1.414,4.833-.377,9.759-.754,14.684-1.131,4.74-.377,9.573-.66,14.313-.942,4.833-.283,9.573-.565,14.405-.848,4.925-.283,9.759-.377,14.684-.565,8.922-.377,17.844-.471,26.859-.565,5.019,0,9.944-.188,14.963-.377,4.926-.188,9.851-.377,14.684-.66,1.951-.094,4-.188,5.948-.377.93-.094,1.952-.188,2.881-.377a24,24,0,0,1,2.509-.565A2.167,2.167,0,0,1,219.053,2.073Z" transform="translate(0 0)" fill="#ff6900"/>
  </g>
</svg>
